<svg width="32" height="32" viewBox="0 0 32 32" fill="none" xmlns="http://www.w3.org/2000/svg">
<rect width="32" height="32" fill="white"/>
<path d="M14.5938 18.3906C15 18.7969 15.4688 19 16 19C16.5312 19 17 18.7969 17.4062 18.3906C17.8125 17.9844 18.0156 17.5156 18.0156 16.9844C18.0156 16.4531 17.8125 16 17.4062 15.625C17 15.2188 16.5312 15.0156 16 15.0156C15.4688 15.0156 15 15.2188 14.5938 15.625C14.1875 16 13.9844 16.4531 13.9844 16.9844C13.9844 17.5156 14.1875 17.9844 14.5938 18.3906ZM11.5938 9.625C11.1875 10 10.9844 10.4531 10.9844 10.9844C10.9844 11.5156 11.1875 11.9844 11.5938 12.3906C12 12.7969 12.4688 13 13 13C13.5312 13 14 12.7969 14.4062 12.3906C14.8125 11.9844 15.0156 11.5156 15.0156 10.9844C15.0156 10.4531 14.8125 10 14.4062 9.625C14 9.21875 13.5312 9.01562 13 9.01562C12.4688 9.01562 12 9.21875 11.5938 9.625ZM7 10C9.40625 7.34375 12.4062 6.01562 16 6.01562C19.5938 6.01562 22.5938 7.34375 25 10L16 25.9844L7 10Z" fill="#6200EE"/>
</svg>
