<svg width="32" height="32" viewBox="0 0 32 32" fill="none" xmlns="http://www.w3.org/2000/svg">
<rect width="32" height="32" fill="white"/>
<path d="M7.98438 20.5V12.0156H7V10.9844H7.98438V10H7V9.01562H7.98438V7.98438H7V7H13C13.5 7.03125 13.9375 7.25 14.3125 7.65625C14.7188 8.03125 14.9531 8.48438 15.0156 9.01562H25V10H15.0156C14.9531 10.5312 14.7188 11.0156 14.3125 11.4531C13.9375 11.8594 13.5 12.0469 13 12.0156H10.9844V19.0469C11.0469 19.0469 11.125 19.0469 11.2188 19.0469C11.3438 19.0156 11.4375 19 11.5 19C12.0625 19 12.7031 19.1406 13.4219 19.4219C13.8281 18.4844 14.5312 17.6875 15.5312 17.0312C16.5312 16.3438 17.5312 16 18.5312 16C20.0625 16 21.3594 16.5312 22.4219 17.5938C23.4844 18.6562 24.0156 19.9531 24.0156 21.4844C24.0156 21.5469 24 21.6406 23.9688 21.7656C23.9688 21.8906 23.9688 21.9688 23.9688 22H7.14062C7.26562 21.5 7.54688 21 7.98438 20.5ZM10 19.2344V12.0156H9.01562V19.7031C9.48438 19.4531 9.8125 19.2969 10 19.2344ZM13 10.9844V10H10.9844V10.9844H13ZM13 7.98438H10.9844V9.01562H13V7.98438ZM9.01562 7.98438V9.01562H10V7.98438H9.01562ZM9.01562 10V10.9844H10V10H9.01562ZM6.01562 22.9844H25.9844L24.0156 25H7.98438L6.01562 22.9844Z" fill="#6200EE"/>
</svg>
