<svg width="32" height="32" viewBox="0 0 32 32" fill="none" xmlns="http://www.w3.org/2000/svg">
<rect width="32" height="32" fill="white"/>
<path d="M7.98438 22.9844H24.0156V25H7.98438V22.9844ZM24.0156 12.0156V9.01562H22V12.0156H24.0156ZM24.0156 7C24.5781 7 25.0469 7.20312 25.4219 7.60938C25.7969 7.98438 25.9844 8.45312 25.9844 9.01562V12.0156C25.9844 12.5781 25.7969 13.0469 25.4219 13.4219C25.0469 13.7969 24.5781 13.9844 24.0156 13.9844H22V16.9844C22 18.0781 21.6094 19.0312 20.8281 19.8438C20.0469 20.625 19.1094 21.0156 18.0156 21.0156H12.0156C10.9219 21.0156 9.96875 20.625 9.15625 19.8438C8.375 19.0312 7.98438 18.0781 7.98438 16.9844V7H24.0156Z" fill="#6200EE"/>
</svg>
