<svg width="32" height="32" viewBox="0 0 32 32" fill="none" xmlns="http://www.w3.org/2000/svg">
<rect width="32" height="32" fill="white"/>
<path d="M10.8438 16.9844C10.0625 16.9219 9.39062 16.6094 8.82812 16.0469C8.26562 15.4531 7.98438 14.7656 7.98438 13.9844C7.98438 13.2656 8.21875 12.625 8.6875 12.0625C9.1875 11.5 9.79688 11.1562 10.5156 11.0312C10.6406 9.625 11.2188 8.4375 12.25 7.46875C13.3125 6.5 14.5625 6.01562 16 6.01562C17.4375 6.01562 18.6719 6.5 19.7031 7.46875C20.7656 8.4375 21.3594 9.625 21.4844 11.0312C22.2031 11.1562 22.7969 11.5 23.2656 12.0625C23.7656 12.625 24.0156 13.2656 24.0156 13.9844C24.0156 14.7656 23.7344 15.4531 23.1719 16.0469C22.6406 16.6094 21.9844 16.9219 21.2031 16.9844L16.0469 27.0156L10.8438 16.9844ZM12.8125 16.4219L16.0469 22.6094L19.2344 16.4219C19.2031 16.3906 19.1406 16.3438 19.0469 16.2812C18.9844 16.2188 18.9375 16.1719 18.9062 16.1406C18 16.7031 17.0312 16.9844 16 16.9844C14.9688 16.9844 14 16.7031 13.0938 16.1406C13.0625 16.1719 13.0312 16.2188 13 16.2812C12.9688 16.3125 12.9375 16.3438 12.9062 16.375C12.875 16.4062 12.8438 16.4219 12.8125 16.4219Z" fill="#6200EE"/>
</svg>
