<svg width="32" height="32" viewBox="0 0 32 32" fill="none" xmlns="http://www.w3.org/2000/svg">
<rect width="32" height="32" fill="white"/>
<path d="M11.7344 12.0156H15.0156V16.9844H11.7344V18.0156H12.4844C13.1719 18.0156 13.7656 18.2656 14.2656 18.7656C14.7656 19.2344 15.0156 19.8125 15.0156 20.5C15.0156 21.1875 14.7656 21.7812 14.2656 22.2812C13.7656 22.75 13.1719 22.9844 12.4844 22.9844H11.7344V27.0156H10.2344V22.9844H9.48438C8.79688 22.9844 8.20312 22.75 7.70312 22.2812C7.23438 21.7812 7 21.1875 7 20.5C7 19.8125 7.23438 19.2344 7.70312 18.7656C8.20312 18.2656 8.79688 18.0156 9.48438 18.0156H10.2344V16.9844H7V12.0156H10.2344V10.9844H9.48438C8.79688 10.9844 8.20312 10.75 7.70312 10.2812C7.23438 9.78125 7 9.1875 7 8.5C7 7.8125 7.23438 7.23438 7.70312 6.76562C8.20312 6.26562 8.79688 6.01562 9.48438 6.01562H10.2344V4.98438H11.7344V6.01562H12.4844C13.1719 6.01562 13.7656 6.26562 14.2656 6.76562C14.7656 7.23438 15.0156 7.8125 15.0156 8.5C15.0156 9.1875 14.7656 9.78125 14.2656 10.2812C13.7656 10.75 13.1719 10.9844 12.4844 10.9844H11.7344V12.0156ZM21.7656 10.9844H22.5156C23.2031 10.9844 23.7812 10.75 24.25 10.2812C24.75 9.78125 25 9.1875 25 8.5C25 7.8125 24.75 7.23438 24.25 6.76562C23.7812 6.26562 23.2031 6.01562 22.5156 6.01562H21.7656V4.98438H20.2656V6.01562H19.5156C18.8281 6.01562 18.2344 6.26562 17.7344 6.76562C17.2344 7.23438 16.9844 7.8125 16.9844 8.5C16.9844 9.1875 17.2344 9.78125 17.7344 10.2812C18.2344 10.75 18.8281 10.9844 19.5156 10.9844H20.2656V12.0156H16.9844V16.9844H20.2656V18.0156H19.5156C18.8281 18.0156 18.2344 18.2656 17.7344 18.7656C17.2344 19.2344 16.9844 19.8125 16.9844 20.5C16.9844 21.1875 17.2344 21.7812 17.7344 22.2812C18.2344 22.75 18.8281 22.9844 19.5156 22.9844H20.2656V27.0156H21.7656V22.9844H22.5156C23.2031 22.9844 23.7812 22.75 24.25 22.2812C24.75 21.7812 25 21.1875 25 20.5C25 19.8125 24.75 19.2344 24.25 18.7656C23.7812 18.2656 23.2031 18.0156 22.5156 18.0156H21.7656V16.9844H25V12.0156H21.7656V10.9844Z" fill="#6200EE"/>
</svg>
