<svg width="32" height="32" viewBox="0 0 32 32" fill="none" xmlns="http://www.w3.org/2000/svg">
<rect width="32" height="32" fill="white"/>
<path d="M25.9844 7L13.9844 8.40625V10H25.9844V10.9844H13.9844V16H25.9844C25.9844 17.8125 25.4219 19.4688 24.2969 20.9688C23.2031 22.4375 21.7656 23.5312 19.9844 24.25V25.9844H12.0156V24.25C10.2344 23.5312 8.78125 22.4375 7.65625 20.9688C6.5625 19.4688 6.01562 17.8125 6.01562 16H9.01562V7.98438L25.9844 6.01562V7ZM10 8.875V10H10.9844V8.78125L10 8.875ZM10 10.9844V16H10.9844V10.9844H10ZM13 16V10.9844H12.0156V16H13ZM13 10V8.54688L12.0156 8.64062V10H13Z" fill="#6200EE"/>
</svg>
