<svg width="32" height="32" viewBox="0 0 32 32" fill="none" xmlns="http://www.w3.org/2000/svg">
<rect width="32" height="32" fill="white"/>
<path d="M6.01562 19.9844H25.9844V22C25.9844 22.5312 25.7812 23 25.375 23.4062C25 23.8125 24.5469 24.0156 24.0156 24.0156H7.98438C7.45312 24.0156 6.98438 23.8125 6.57812 23.4062C6.20312 23 6.01562 22.5312 6.01562 22V19.9844ZM9.34375 17.5C9 17.5 8.625 17.625 8.21875 17.875C7.53125 18.2812 6.79688 18.4844 6.01562 18.4844V16.5156C6.35938 16.5156 6.73438 16.3906 7.14062 16.1406C7.85938 15.7031 8.59375 15.4844 9.34375 15.4844C10.0625 15.4844 10.7812 15.7031 11.5 16.1406C11.9062 16.3906 12.2969 16.5156 12.6719 16.5156C13.0156 16.5156 13.3906 16.3906 13.7969 16.1406C14.5156 15.7031 15.25 15.4844 16 15.4844C16.7188 15.4844 17.4375 15.7031 18.1562 16.1406C18.5625 16.3906 18.9531 16.5156 19.3281 16.5156C19.6719 16.5156 20.0469 16.3906 20.4531 16.1406C21.1719 15.7031 21.9062 15.4844 22.6562 15.4844C23.375 15.4844 24.0938 15.7031 24.8125 16.1406L25.9844 16.5156V18.4844C25.2344 18.4844 24.5156 18.2812 23.8281 17.875C23.4219 17.625 23.0312 17.5 22.6562 17.5C22.3125 17.5 21.9375 17.625 21.5312 17.875C20.8438 18.2812 20.1094 18.4844 19.3281 18.4844C18.5781 18.4844 17.8594 18.2812 17.1719 17.875C16.7656 17.625 16.375 17.5 16 17.5C15.6562 17.5 15.2812 17.625 14.875 17.875C14.1875 18.2812 13.4531 18.4844 12.6719 18.4844C11.9219 18.4844 11.2031 18.2812 10.5156 17.875C10.1094 17.625 9.71875 17.5 9.34375 17.5ZM25.9844 13.9844H6.01562C5.85938 12.3594 6.76562 10.9531 8.73438 9.76562C10.7031 8.57812 13.125 7.98438 16 7.98438C18.875 7.98438 21.2969 8.57812 23.2656 9.76562C25.2344 10.9531 26.1406 12.3594 25.9844 13.9844Z" fill="#6200EE"/>
</svg>
