<svg width="32" height="32" viewBox="0 0 32 32" fill="none" xmlns="http://www.w3.org/2000/svg">
<rect width="32" height="32" fill="white"/>
<path d="M17.7812 19H14.2188L13.4688 12.1094C13.4375 11.7969 13.5156 11.5312 13.7031 11.3125C13.8906 11.0938 14.1094 10.9844 14.3594 10.9844H17.6406C17.8906 10.9844 18.1094 11.0938 18.2969 11.3125C18.4844 11.5312 18.5625 11.7969 18.5312 12.1094L17.7812 19ZM12.625 13.375L13.2812 19H11.5L9.39062 14.9219C9.07812 14.3281 9.20312 13.8594 9.76562 13.5156L11.3594 12.625C11.6094 12.4688 11.875 12.4688 12.1562 12.625C12.4375 12.7812 12.5938 13.0312 12.625 13.375ZM19.375 13.375C19.4375 13.0312 19.5938 12.7812 19.8438 12.625C20.0938 12.4688 20.3594 12.4688 20.6406 12.625L22.2344 13.5156C22.7969 13.8594 22.9062 14.3281 22.5625 14.9219L20.5 19H18.7188L19.375 13.375ZM8.73438 20.3594C8.57812 20.4531 8.39062 20.5 8.17188 20.5C7.79688 20.5 7.51562 20.3125 7.32812 19.9375L7.09375 19.4688C6.9375 19.0938 6.95312 18.7656 7.14062 18.4844L7.98438 17.2188C8.14062 16.9375 8.40625 16.7969 8.78125 16.7969C9.15625 16.7969 9.42188 16.9375 9.57812 17.2188L10.5625 19L8.73438 20.3594ZM23.2656 20.3594L21.4375 19C21.6562 18.5938 21.9844 18 22.4219 17.2188C22.5781 16.9375 22.8438 16.7969 23.2188 16.7969C23.5938 16.7969 23.8594 16.9375 24.0156 17.2188L24.8125 18.4844C25.0312 18.7969 25.0625 19.125 24.9062 19.4688L24.6719 19.9375C24.5156 20.3125 24.2344 20.5 23.8281 20.5C23.6094 20.5 23.4219 20.4531 23.2656 20.3594Z" fill="#6200EE"/>
</svg>
