<svg width="32" height="32" viewBox="0 0 32 32" fill="none" xmlns="http://www.w3.org/2000/svg">
<rect width="32" height="32" fill="white"/>
<path d="M16 6C15.04 6 14.12 6.14 13.25 6.39C12.37 4.96 10.8 4 9 4C6.24 4 4 6.24 4 9C4 10.8 4.96 12.37 6.39 13.25C6.14 14.12 6 15.04 6 16C6 21.52 10.48 26 16 26C21.52 26 26 21.52 26 16C26 10.48 21.52 6 16 6ZM16 24C11.59 24 8 20.41 8 16C8 15.95 8.01 15.9 8.01 15.85C10.61 14.87 12.69 12.86 13.75 10.3C15.58 12.56 18.37 14 21.5 14C22.25 14 22.97 13.91 23.67 13.76C23.88 14.47 24 15.22 24 16C24 20.41 20.41 24 16 24Z" fill="#6200EE"/>
<path d="M13 18.25C13.6904 18.25 14.25 17.6904 14.25 17C14.25 16.3096 13.6904 15.75 13 15.75C12.3096 15.75 11.75 16.3096 11.75 17C11.75 17.6904 12.3096 18.25 13 18.25Z" fill="#6200EE"/>
<path d="M19 18.25C19.6904 18.25 20.25 17.6904 20.25 17C20.25 16.3096 19.6904 15.75 19 15.75C18.3096 15.75 17.75 16.3096 17.75 17C17.75 17.6904 18.3096 18.25 19 18.25Z" fill="#6200EE"/>
</svg>
