<svg width="32" height="32" viewBox="0 0 32 32" fill="none" xmlns="http://www.w3.org/2000/svg">
<rect width="32" height="32" fill="white"/>
<path d="M25.97 17.52C25.97 17.51 25.97 17.5 25.97 17.48C27.21 16.38 28 14.78 28 13C28 9.69 25.31 7 22 7C21.74 7 21.48 7.02 21.22 7.06C20.19 5.23 18.24 4 16 4C13.76 4 11.81 5.23 10.78 7.06C10.52 7.02 10.26 7 10 7C6.69 7 4 9.69 4 13C4 14.78 4.79 16.38 6.02 17.48C6.02 17.49 6.02 17.5 6.02 17.52C4.79 18.62 4 20.22 4 22C4 25.31 6.69 28 10 28C11.39 28 12.67 27.52 13.69 26.72C14.43 26.9 15.2 27 16 27C16.8 27 17.57 26.9 18.31 26.72C19.33 27.52 20.61 28 22 28C25.31 28 28 25.31 28 22C28 20.22 27.21 18.62 25.97 17.52ZM16 25C11.59 25 8 21.41 8 17C8 13.28 10.56 10.15 14 9.26C14 9.28 14 9.29 14 9.31C14 12.65 16.72 15.37 20.06 15.37C21.32 15.37 22.51 14.98 23.51 14.28C23.82 15.14 24 16.05 24 17C24 21.41 20.41 25 16 25Z" fill="#6200EE"/>
<path d="M13 19.25C13.6904 19.25 14.25 18.6904 14.25 18C14.25 17.3096 13.6904 16.75 13 16.75C12.3096 16.75 11.75 17.3096 11.75 18C11.75 18.6904 12.3096 19.25 13 19.25Z" fill="#6200EE"/>
<path d="M19 19.25C19.6904 19.25 20.25 18.6904 20.25 18C20.25 17.3096 19.6904 16.75 19 16.75C18.3096 16.75 17.75 17.3096 17.75 18C17.75 18.6904 18.3096 19.25 19 19.25Z" fill="#6200EE"/>
</svg>
