<svg width="32" height="32" viewBox="0 0 32 32" fill="none" xmlns="http://www.w3.org/2000/svg">
<rect width="32" height="32" fill="white"/>
<path d="M16 6C10.48 6 6 10.48 6 16C6 21.52 10.48 26 16 26C21.52 26 26 21.52 26 16C26 10.48 21.52 6 16 6ZM16 24C11.59 24 8 20.41 8 16C8 14.88 8.23 13.82 8.65 12.85C8.74 12.94 8.86 13 9 13C9.28 13 9.5 12.78 9.5 12.5C9.5 12.25 9.31 12.05 9.07 12.01C9.22 11.75 9.39 11.5 9.56 11.26C9.53 11.34 9.5 11.41 9.5 11.5C9.5 11.78 9.72 12 10 12C10.28 12 10.5 11.78 10.5 11.5C10.5 11.22 10.28 11 10 11C9.87 11 9.75 11.05 9.66 11.13C10.18 10.45 10.81 9.85 11.52 9.37C11.51 9.41 11.5 9.45 11.5 9.5C11.5 9.78 11.72 10 12 10C12.28 10 12.5 9.78 12.5 9.5C12.5 9.26 12.33 9.07 12.1 9.02C12.26 8.93 12.42 8.85 12.59 8.77C12.68 8.91 12.83 9 13 9C13.28 9 13.5 8.78 13.5 8.5C13.5 8.47 13.49 8.44 13.48 8.41C13.87 8.28 14.27 8.18 14.69 8.11C14.58 8.21 14.5 8.34 14.5 8.5C14.5 8.78 14.72 9 15 9C15.28 9 15.5 8.78 15.5 8.5C15.5 8.29 15.37 8.12 15.2 8.04C15.46 8.01 15.73 8 16 8C16.27 8 16.54 8.01 16.8 8.04C16.62 8.12 16.5 8.29 16.5 8.5C16.5 8.78 16.72 9 17 9C17.28 9 17.5 8.78 17.5 8.5C17.5 8.34 17.42 8.21 17.31 8.12C17.72 8.19 18.13 8.29 18.52 8.42C18.51 8.44 18.5 8.47 18.5 8.5C18.5 8.78 18.72 9 19 9C19.17 9 19.32 8.91 19.41 8.77C19.58 8.85 19.74 8.93 19.9 9.02C19.67 9.07 19.5 9.26 19.5 9.5C19.5 9.78 19.72 10 20 10C20.28 10 20.5 9.78 20.5 9.5C20.5 9.45 20.49 9.41 20.47 9.37C21.18 9.85 21.81 10.45 22.33 11.13C22.25 11.05 22.13 11 22 11C21.72 11 21.5 11.22 21.5 11.5C21.5 11.78 21.72 12 22 12C22.28 12 22.5 11.78 22.5 11.5C22.5 11.41 22.47 11.34 22.43 11.27C22.61 11.51 22.77 11.76 22.92 12.02C22.69 12.05 22.5 12.25 22.5 12.5C22.5 12.78 22.72 13 23 13C23.14 13 23.26 12.94 23.35 12.85C23.77 13.82 24 14.88 24 16C24 20.41 20.41 24 16 24Z" fill="#6200EE"/>
<path d="M13 18.25C13.6904 18.25 14.25 17.6904 14.25 17C14.25 16.3096 13.6904 15.75 13 15.75C12.3096 15.75 11.75 16.3096 11.75 17C11.75 17.6904 12.3096 18.25 13 18.25Z" fill="#6200EE"/>
<path d="M16 10C16.2761 10 16.5 9.77614 16.5 9.5C16.5 9.22386 16.2761 9 16 9C15.7239 9 15.5 9.22386 15.5 9.5C15.5 9.77614 15.7239 10 16 10Z" fill="#6200EE"/>
<path d="M18 10C18.2761 10 18.5 9.77614 18.5 9.5C18.5 9.22386 18.2761 9 18 9C17.7239 9 17.5 9.22386 17.5 9.5C17.5 9.77614 17.7239 10 18 10Z" fill="#6200EE"/>
<path d="M14 10C14.2761 10 14.5 9.77614 14.5 9.5C14.5 9.22386 14.2761 9 14 9C13.7239 9 13.5 9.22386 13.5 9.5C13.5 9.77614 13.7239 10 14 10Z" fill="#6200EE"/>
<path d="M21 11C21.2761 11 21.5 10.7761 21.5 10.5C21.5 10.2239 21.2761 10 21 10C20.7239 10 20.5 10.2239 20.5 10.5C20.5 10.7761 20.7239 11 21 11Z" fill="#6200EE"/>
<path d="M13 11C13.2761 11 13.5 10.7761 13.5 10.5C13.5 10.2239 13.2761 10 13 10C12.7239 10 12.5 10.2239 12.5 10.5C12.5 10.7761 12.7239 11 13 11Z" fill="#6200EE"/>
<path d="M11 11C11.2761 11 11.5 10.7761 11.5 10.5C11.5 10.2239 11.2761 10 11 10C10.7239 10 10.5 10.2239 10.5 10.5C10.5 10.7761 10.7239 11 11 11Z" fill="#6200EE"/>
<path d="M15 11C15.2761 11 15.5 10.7761 15.5 10.5C15.5 10.2239 15.2761 10 15 10C14.7239 10 14.5 10.2239 14.5 10.5C14.5 10.7761 14.7239 11 15 11Z" fill="#6200EE"/>
<path d="M17 11C17.2761 11 17.5 10.7761 17.5 10.5C17.5 10.2239 17.2761 10 17 10C16.7239 10 16.5 10.2239 16.5 10.5C16.5 10.7761 16.7239 11 17 11Z" fill="#6200EE"/>
<path d="M19 11C19.2761 11 19.5 10.7761 19.5 10.5C19.5 10.2239 19.2761 10 19 10C18.7239 10 18.5 10.2239 18.5 10.5C18.5 10.7761 18.7239 11 19 11Z" fill="#6200EE"/>
<path d="M16 12C16.2761 12 16.5 11.7761 16.5 11.5C16.5 11.2239 16.2761 11 16 11C15.7239 11 15.5 11.2239 15.5 11.5C15.5 11.7761 15.7239 12 16 12Z" fill="#6200EE"/>
<path d="M18 12C18.2761 12 18.5 11.7761 18.5 11.5C18.5 11.2239 18.2761 11 18 11C17.7239 11 17.5 11.2239 17.5 11.5C17.5 11.7761 17.7239 12 18 12Z" fill="#6200EE"/>
<path d="M20 12C20.2761 12 20.5 11.7761 20.5 11.5C20.5 11.2239 20.2761 11 20 11C19.7239 11 19.5 11.2239 19.5 11.5C19.5 11.7761 19.7239 12 20 12Z" fill="#6200EE"/>
<path d="M14 12C14.2761 12 14.5 11.7761 14.5 11.5C14.5 11.2239 14.2761 11 14 11C13.7239 11 13.5 11.2239 13.5 11.5C13.5 11.7761 13.7239 12 14 12Z" fill="#6200EE"/>
<path d="M12 12C12.2761 12 12.5 11.7761 12.5 11.5C12.5 11.2239 12.2761 11 12 11C11.7239 11 11.5 11.2239 11.5 11.5C11.5 11.7761 11.7239 12 12 12Z" fill="#6200EE"/>
<path d="M13 13C13.2761 13 13.5 12.7761 13.5 12.5C13.5 12.2239 13.2761 12 13 12C12.7239 12 12.5 12.2239 12.5 12.5C12.5 12.7761 12.7239 13 13 13Z" fill="#6200EE"/>
<path d="M11 13C11.2761 13 11.5 12.7761 11.5 12.5C11.5 12.2239 11.2761 12 11 12C10.7239 12 10.5 12.2239 10.5 12.5C10.5 12.7761 10.7239 13 11 13Z" fill="#6200EE"/>
<path d="M15 13C15.2761 13 15.5 12.7761 15.5 12.5C15.5 12.2239 15.2761 12 15 12C14.7239 12 14.5 12.2239 14.5 12.5C14.5 12.7761 14.7239 13 15 13Z" fill="#6200EE"/>
<path d="M17 13C17.2761 13 17.5 12.7761 17.5 12.5C17.5 12.2239 17.2761 12 17 12C16.7239 12 16.5 12.2239 16.5 12.5C16.5 12.7761 16.7239 13 17 13Z" fill="#6200EE"/>
<path d="M19 13C19.2761 13 19.5 12.7761 19.5 12.5C19.5 12.2239 19.2761 12 19 12C18.7239 12 18.5 12.2239 18.5 12.5C18.5 12.7761 18.7239 13 19 13Z" fill="#6200EE"/>
<path d="M21 13C21.2761 13 21.5 12.7761 21.5 12.5C21.5 12.2239 21.2761 12 21 12C20.7239 12 20.5 12.2239 20.5 12.5C20.5 12.7761 20.7239 13 21 13Z" fill="#6200EE"/>
<path d="M19 18.25C19.6904 18.25 20.25 17.6904 20.25 17C20.25 16.3096 19.6904 15.75 19 15.75C18.3096 15.75 17.75 16.3096 17.75 17C17.75 17.6904 18.3096 18.25 19 18.25Z" fill="#6200EE"/>
</svg>
