<svg width="32" height="32" viewBox="0 0 32 32" fill="none" xmlns="http://www.w3.org/2000/svg">
<rect width="32" height="32" fill="white"/>
<path d="M13 18.25C13.6904 18.25 14.25 17.6904 14.25 17C14.25 16.3096 13.6904 15.75 13 15.75C12.3096 15.75 11.75 16.3096 11.75 17C11.75 17.6904 12.3096 18.25 13 18.25Z" fill="#6200EE"/>
<path d="M19 18.25C19.6904 18.25 20.25 17.6904 20.25 17C20.25 16.3096 19.6904 15.75 19 15.75C18.3096 15.75 17.75 16.3096 17.75 17C17.75 17.6904 18.3096 18.25 19 18.25Z" fill="#6200EE"/>
<path d="M26.91 15.96C26.39 10.32 21.66 6 16 6C10.34 6 5.61 10.32 5.09 15.96L4.19 25.82C4.09 26.99 5.01 28 6.19 28H25.81C26.99 28 27.91 26.99 27.8 25.82L26.91 15.96ZM8.54 13.13C9.41 13.68 10.43 14 11.5 14C13.36 14 15 13.07 16 11.65C17 13.07 18.64 14 20.5 14C21.57 14 22.59 13.68 23.46 13.13C23.8 14.02 24 14.99 24 16C24 20.41 20.41 24 16 24C11.59 24 8 20.41 8 16C8 14.99 8.2 14.02 8.54 13.13Z" fill="#6200EE"/>
</svg>
