<svg width="32" height="32" viewBox="0 0 32 32" fill="none" xmlns="http://www.w3.org/2000/svg">
<rect width="32" height="32" fill="white"/>
<path d="M16 6C10.48 6 6 10.48 6 16C6 21.52 10.48 26 16 26C21.52 26 26 21.52 26 16C26 10.48 21.52 6 16 6ZM16 24C11.59 24 8 20.41 8 16C8 15.99 8 15.98 8 15.97C10.31 15.75 11.43 14.38 12.34 12.56C12.51 12.21 12.85 12 13.24 12H18.77C19.15 12 19.49 12.21 19.66 12.55C20.56 14.35 21.65 15.74 24 15.96C24 15.97 24 15.98 24 15.99C24 20.41 20.41 24 16 24Z" fill="#6200EE"/>
<path d="M13 18.25C13.6904 18.25 14.25 17.6904 14.25 17C14.25 16.3096 13.6904 15.75 13 15.75C12.3096 15.75 11.75 16.3096 11.75 17C11.75 17.6904 12.3096 18.25 13 18.25Z" fill="#6200EE"/>
<path d="M19 18.25C19.6904 18.25 20.25 17.6904 20.25 17C20.25 16.3096 19.6904 15.75 19 15.75C18.3096 15.75 17.75 16.3096 17.75 17C17.75 17.6904 18.3096 18.25 19 18.25Z" fill="#6200EE"/>
</svg>
