<svg width="32" height="32" viewBox="0 0 32 32" fill="none" xmlns="http://www.w3.org/2000/svg">
<rect width="32" height="32" fill="white"/>
<path d="M10.3281 21.6719C11.9219 23.2344 13.8125 24.0156 16 24.0156C18.1875 24.0156 20.0625 23.2344 21.625 21.6719C23.2188 20.0781 24.0156 18.1875 24.0156 16C24.0156 15.3125 23.9062 14.5625 23.6875 13.75C23 13.9062 22.2344 13.9844 21.3906 13.9844C19.9531 13.9844 18.4375 13.5781 16.8438 12.7656C15.2812 11.9219 14.0938 10.9219 13.2812 9.76562C12.25 12.2656 10.5 14.0625 8.03125 15.1562C8 15.3438 7.98438 15.625 7.98438 16C7.98438 18.1875 8.76562 20.0781 10.3281 21.6719ZM8.92188 8.96875C10.8906 7 13.25 6.01562 16 6.01562C18.75 6.01562 21.0938 7 23.0312 8.96875C25 10.9062 25.9844 13.25 25.9844 16C25.9844 18.75 25 21.1094 23.0312 23.0781C21.0938 25.0156 18.75 25.9844 16 25.9844C13.25 25.9844 10.8906 25.0156 8.92188 23.0781C6.98438 21.1094 6.01562 18.75 6.01562 16C6.01562 13.25 6.98438 10.9062 8.92188 8.96875ZM18.1094 16.1406C18.3594 15.8906 18.6562 15.7656 19 15.7656C19.3438 15.7656 19.6406 15.8906 19.8906 16.1406C20.1406 16.3594 20.2656 16.6406 20.2656 16.9844C20.2656 17.3281 20.1406 17.625 19.8906 17.875C19.6406 18.125 19.3438 18.25 19 18.25C18.6562 18.25 18.3594 18.125 18.1094 17.875C17.8594 17.625 17.7344 17.3281 17.7344 16.9844C17.7344 16.6406 17.8594 16.3594 18.1094 16.1406ZM12.1094 16.1406C12.3594 15.8906 12.6562 15.7656 13 15.7656C13.3438 15.7656 13.6406 15.8906 13.8906 16.1406C14.1406 16.3594 14.2656 16.6406 14.2656 16.9844C14.2656 17.3281 14.1406 17.625 13.8906 17.875C13.6406 18.125 13.3438 18.25 13 18.25C12.6562 18.25 12.3594 18.125 12.1094 17.875C11.8594 17.625 11.7344 17.3281 11.7344 16.9844C11.7344 16.6406 11.8594 16.3594 12.1094 16.1406Z" fill="#6200EE"/>
</svg>
