<svg width="32" height="32" viewBox="0 0 32 32" fill="none" xmlns="http://www.w3.org/2000/svg">
<rect width="32" height="32" fill="white"/>
<path d="M5.03125 21.0156H20.0312V22.9844H5.03125V21.0156ZM20.0312 19H4.98438C4.98438 17.4688 5.5 16.1875 6.53125 15.1562C7.5625 14.125 8.8125 13.4844 10.2812 13.2344C11.75 12.9844 13.2188 12.9844 14.6875 13.2344C16.1875 13.4844 17.4531 14.125 18.4844 15.1562C19.5156 16.1875 20.0312 17.4688 20.0312 19ZM4.98438 25.9844V25H20.0312V25.9844C20.0312 26.2656 19.9219 26.5 19.7031 26.6875C19.5156 26.875 19.2812 26.9688 19 26.9688H6.01562C5.73438 26.9688 5.48438 26.875 5.26562 26.6875C5.07812 26.5 4.98438 26.2656 4.98438 25.9844ZM22.0469 26.9688V18.9531C22.0469 16.9844 21.2344 15.2188 19.6094 13.6562C18.6406 12.6875 17.2188 11.9375 15.3438 11.4062L15.0625 9.0625H20.0312V4.98438H22V9.0625H27.0156L25.3281 25.5156C25.2656 25.9219 25.0781 26.2656 24.7656 26.5469C24.4844 26.8281 24.1406 26.9688 23.7344 26.9688H22.0469Z" fill="#6200EE"/>
</svg>
